<svg width="24" height="24" viewBox="0 0 24 24" fill="none" xmlns="http://www.w3.org/2000/svg">
<path d="M9.93748 13.5C9.93748 13.6855 9.8825 13.8667 9.77948 14.0209C9.67647 14.175 9.53005 14.2952 9.35875 14.3662C9.18744 14.4371 8.99894 14.4557 8.81708 14.4195C8.63523 14.3833 8.46818 14.2941 8.33707 14.1629C8.20596 14.0318 8.11667 13.8648 8.08049 13.6829C8.04432 13.5011 8.06289 13.3126 8.13384 13.1413C8.2048 12.97 8.32496 12.8235 8.47913 12.7205C8.6333 12.6175 8.81456 12.5625 8.99998 12.5625C9.24862 12.5625 9.48708 12.6613 9.66289 12.8371C9.83871 13.0129 9.93748 13.2514 9.93748 13.5V13.5ZM15 12.5625C14.8146 12.5625 14.6333 12.6175 14.4791 12.7205C14.325 12.8235 14.2048 12.97 14.1338 13.1413C14.0629 13.3126 14.0443 13.5011 14.0805 13.6829C14.1167 13.8648 14.206 14.0318 14.3371 14.1629C14.4682 14.2941 14.6352 14.3833 14.8171 14.4195C14.9989 14.4557 15.1874 14.4371 15.3587 14.3662C15.5301 14.2952 15.6765 14.175 15.7795 14.0209C15.8825 13.8667 15.9375 13.6855 15.9375 13.5C15.9375 13.2514 15.8387 13.0129 15.6629 12.8371C15.4871 12.6613 15.2486 12.5625 15 12.5625ZM22.6031 17.3438C21.075 18.675 19.0125 19.6875 16.6406 20.2688C16.5388 20.2905 16.4353 20.303 16.3312 20.3063C16.087 20.3065 15.8476 20.238 15.6404 20.1087C15.4332 19.9794 15.2665 19.7945 15.1594 19.575L14.2125 17.6813C13.4781 17.7679 12.7394 17.8117 12 17.8125C11.2606 17.8117 10.5218 17.7679 9.78748 17.6813L8.84061 19.575C8.73343 19.7945 8.56673 19.9794 8.35953 20.1087C8.15233 20.238 7.91296 20.3065 7.66873 20.3063C7.56469 20.303 7.46116 20.2905 7.35936 20.2688C4.98748 19.6875 2.92498 18.675 1.39686 17.3438C1.20481 17.1788 1.06457 16.9618 0.993045 16.719C0.921519 16.4761 0.921757 16.2178 0.993731 15.975L4.18123 5.35315C4.23781 5.16637 4.33533 4.99455 4.46669 4.85021C4.59806 4.70587 4.75996 4.59265 4.94061 4.51878C5.87051 4.13391 6.83398 3.83577 7.81873 3.62815C8.13495 3.55888 8.46564 3.60978 8.74639 3.77095C9.02714 3.93212 9.23785 4.19202 9.33748 4.50003L9.94686 6.30003C11.3115 6.15 12.6885 6.15 14.0531 6.30003L14.6625 4.50003C14.7621 4.19202 14.9728 3.93212 15.2536 3.77095C15.5343 3.60978 15.865 3.55888 16.1812 3.62815C17.166 3.83577 18.1295 4.13391 19.0594 4.51878C19.24 4.59265 19.4019 4.70587 19.5333 4.85021C19.6646 4.99455 19.7622 5.16637 19.8187 5.35315L23.0062 15.975C23.0782 16.2178 23.0784 16.4761 23.0069 16.719C22.9354 16.9618 22.7952 17.1788 22.6031 17.3438V17.3438ZM21.9281 16.2938L18.7406 5.68128C18.7325 5.6537 18.7181 5.62836 18.6986 5.60723C18.6791 5.58609 18.6549 5.56973 18.6281 5.5594C17.7606 5.20307 16.8634 4.92387 15.9469 4.72503C15.9 4.71769 15.852 4.72673 15.811 4.75064C15.77 4.77455 15.7385 4.81186 15.7219 4.85628L15.1875 6.46878C15.8674 6.58566 16.5379 6.75172 17.1937 6.96566C17.3203 7.00722 17.428 7.09234 17.4976 7.20586C17.5673 7.31939 17.5944 7.45395 17.5742 7.5856C17.5539 7.71725 17.4876 7.83744 17.387 7.92478C17.2865 8.01211 17.1582 8.06093 17.025 8.06253L16.8469 8.0344C15.2778 7.54652 13.6431 7.30305 12 7.31253C10.3569 7.30305 8.72212 7.54652 7.15311 8.0344C7.08187 8.06147 7.00588 8.07379 6.92975 8.0706C6.85361 8.06741 6.77891 8.04878 6.71019 8.01585C6.64147 7.98292 6.58016 7.93636 6.52998 7.87901C6.4798 7.82167 6.44179 7.75472 6.41827 7.68224C6.39474 7.60976 6.38619 7.53325 6.39313 7.45737C6.40007 7.38148 6.42236 7.30779 6.45864 7.24078C6.49492 7.17377 6.54444 7.11483 6.60419 7.06753C6.66394 7.02024 6.73268 6.98558 6.80623 6.96566C7.46208 6.75172 8.13259 6.58566 8.81248 6.46878L8.27811 4.85628C8.26142 4.81186 8.22993 4.77455 8.18895 4.75064C8.14796 4.72673 8.09998 4.71769 8.05311 4.72503C7.13658 4.92387 6.23937 5.20307 5.37186 5.5594C5.34501 5.56973 5.32091 5.58609 5.3014 5.60723C5.28189 5.62836 5.2675 5.6537 5.25936 5.68128L2.07186 16.2938C2.06145 16.3308 2.06212 16.3701 2.07378 16.4067C2.08545 16.4434 2.10759 16.4758 2.13748 16.5C3.53436 17.7094 5.42811 18.6375 7.63123 19.1719C7.67113 19.1809 7.71288 19.1766 7.75012 19.1597C7.78735 19.1428 7.81803 19.1141 7.83748 19.0782L8.62498 17.5032C8.00937 17.3858 7.40188 17.2292 6.80623 17.0344C6.73268 17.0145 6.66394 16.9798 6.60419 16.9325C6.54444 16.8852 6.49492 16.8263 6.45864 16.7593C6.42236 16.6923 6.40007 16.6186 6.39313 16.5427C6.38619 16.4668 6.39474 16.3903 6.41827 16.3178C6.44179 16.2453 6.4798 16.1784 6.52998 16.121C6.58016 16.0637 6.64147 16.0171 6.71019 15.9842C6.77891 15.9513 6.85361 15.9327 6.92975 15.9295C7.00588 15.9263 7.08187 15.9386 7.15311 15.9657C8.72212 16.4535 10.3569 16.697 12 16.6875C13.6431 16.697 15.2778 16.4535 16.8469 15.9657C16.9181 15.9386 16.9941 15.9263 17.0702 15.9295C17.1464 15.9327 17.221 15.9513 17.2898 15.9842C17.3585 16.0171 17.4198 16.0637 17.47 16.121C17.5202 16.1784 17.5582 16.2453 17.5817 16.3178C17.6052 16.3903 17.6138 16.4668 17.6068 16.5427C17.5999 16.6186 17.5776 16.6923 17.5413 16.7593C17.505 16.8263 17.4555 16.8852 17.3958 16.9325C17.336 16.9798 17.2673 17.0145 17.1937 17.0344C16.5981 17.2292 15.9906 17.3858 15.375 17.5032L16.1625 19.0782C16.1819 19.1141 16.2126 19.1428 16.2498 19.1597C16.2871 19.1766 16.3288 19.1809 16.3687 19.1719C18.5719 18.6375 20.4656 17.7094 21.8625 16.5C21.8924 16.4758 21.9145 16.4434 21.9262 16.4067C21.9378 16.3701 21.9385 16.3308 21.9281 16.2938V16.2938Z" fill="black"/>
</svg>
