<svg width="24" height="24" viewBox="0 0 24 24" fill="none" xmlns="http://www.w3.org/2000/svg">
<path d="M21.945 2.76499C21.7294 2.58627 21.4694 2.46922 21.1927 2.42626C20.9159 2.38331 20.6327 2.41604 20.373 2.52099L2.45602 9.75399C2.16649 9.87297 1.92 10.0772 1.74926 10.3396C1.57852 10.6019 1.49161 10.91 1.50008 11.2229C1.50854 11.5358 1.61197 11.8387 1.79664 12.0915C1.98131 12.3442 2.23849 12.5348 2.53402 12.638L6.40002 13.98L8.49502 20.906C8.49902 20.92 8.51202 20.929 8.51802 20.942C8.53961 20.9972 8.57113 21.0481 8.61102 21.092C8.67164 21.1597 8.74989 21.2092 8.83702 21.235C8.84702 21.239 8.85402 21.248 8.86402 21.25H8.87002L8.87302 21.251C8.95039 21.2676 9.03078 21.2635 9.10602 21.239C9.11402 21.237 9.12202 21.237 9.13102 21.234C9.20327 21.2086 9.26865 21.1669 9.32202 21.112C9.32802 21.105 9.33802 21.104 9.34402 21.098L12.357 17.772L16.754 21.177C17.021 21.386 17.35 21.499 17.689 21.499C18.423 21.499 19.056 20.985 19.207 20.268L22.469 4.24999C22.5244 3.97807 22.5048 3.69622 22.4126 3.43452C22.3203 3.17281 22.1587 2.94107 21.945 2.76399V2.76499ZM9.58802 15.295L8.88102 18.732L7.40602 13.854L14.721 10.044L9.72402 15.042C9.65482 15.1111 9.60752 15.1991 9.58802 15.295ZM18.227 20.067C18.2082 20.1577 18.1665 20.242 18.1057 20.3119C18.0449 20.3817 17.9672 20.4348 17.88 20.466C17.7949 20.4987 17.7028 20.5088 17.6127 20.4951C17.5226 20.4814 17.4376 20.4445 17.366 20.388L12.603 16.699C12.5035 16.6221 12.3786 16.5856 12.2533 16.5967C12.128 16.6079 12.0115 16.6658 11.927 16.759L9.83002 19.07L10.536 15.643L17.725 8.45299C17.8092 8.36852 17.8604 8.25675 17.8695 8.13783C17.8785 8.01891 17.8447 7.90069 17.7742 7.80449C17.7037 7.7083 17.6012 7.64046 17.4851 7.61323C17.3689 7.586 17.2469 7.60117 17.141 7.65599L6.77802 13.054L2.86102 11.692C2.75717 11.6577 2.66659 11.5919 2.60188 11.5037C2.53718 11.4155 2.50158 11.3094 2.50002 11.2C2.49504 11.0897 2.52452 10.9805 2.58437 10.8877C2.64422 10.7949 2.73147 10.723 2.83402 10.682L20.748 3.44899C20.8398 3.40999 20.9407 3.39737 21.0393 3.41257C21.1378 3.42776 21.2302 3.47016 21.306 3.53499C21.3814 3.59598 21.4383 3.67672 21.4705 3.76819C21.5026 3.85966 21.5087 3.95827 21.488 4.05299L18.227 20.068V20.067Z" fill="black"/>
</svg>
